<?xml version="1.0" encoding="UTF-8"?>
<svg xmlns="http://www.w3.org/2000/svg" viewBox="0 0 1024 1024" width="1024" height="1024" role="img" aria-labelledby="title desc">
  <title>PicGrid app icon</title>
  <desc>Rounded square gradient app icon depicting a camera and a stylized 3x3 photo grid.</desc>

  <defs>
    <!-- Background gradient -->
    <linearGradient id="bg" x1="0" y1="0" x2="1" y2="1">
      <stop offset="0%" stop-color="#8B5CF6"/>   <!-- violet -->
      <stop offset="100%" stop-color="#06B6D4"/> <!-- cyan -->
    </linearGradient>

    <!-- Card gloss -->
    <linearGradient id="gloss" x1="0" y1="0" x2="0" y2="1">
      <stop offset="0%" stop-color="#ffffff" stop-opacity="0.35"/>
      <stop offset="50%" stop-color="#ffffff" stop-opacity="0.08"/>
      <stop offset="100%" stop-color="#ffffff" stop-opacity="0"/>
    </linearGradient>

    <!-- Shadows -->
    <filter id="shadow" x="-20%" y="-20%" width="140%" height="140%">
      <feDropShadow dx="0" dy="12" stdDeviation="22" flood-color="#0b1220" flood-opacity="0.35"/>
    </filter>
    <filter id="innerShadow" x="-50%" y="-50%" width="200%" height="200%">
      <feOffset dx="0" dy="2"/>
      <feGaussianBlur stdDeviation="8" result="blur"/>
      <feComposite in="SourceGraphic" in2="blur" operator="arithmetic" k2="-1" k3="1"/>
      <feColorMatrix type="matrix" values="0 0 0 0 0  0 0 0 0 0  0 0 0 0 0  0 0 0 0.35 0"/>
    </filter>

    <!-- Accent gradients for tiles -->
    <linearGradient id="tileGrad1" x1="0" y1="0" x2="1" y2="1">
      <stop offset="0%" stop-color="#FDE68A"/>
      <stop offset="100%" stop-color="#F59E0B"/>
    </linearGradient>
    <linearGradient id="tileGrad2" x1="0" y1="0" x2="1" y2="1">
      <stop offset="0%" stop-color="#6EE7B7"/>
      <stop offset="100%" stop-color="#10B981"/>
    </linearGradient>
    <linearGradient id="tileGrad3" x1="0" y1="0" x2="1" y2="1">
      <stop offset="0%" stop-color="#93C5FD"/>
      <stop offset="100%" stop-color="#3B82F6"/>
    </linearGradient>
    <linearGradient id="tileGrad4" x1="0" y1="0" x2="1" y2="1">
      <stop offset="0%" stop-color="#FCA5A5"/>
      <stop offset="100%" stop-color="#EF4444"/>
    </linearGradient>
  </defs>

  <!-- Rounded background -->
  <rect x="64" y="64" width="896" height="896" rx="220" fill="url(#bg)"/>

  <!-- Gloss -->
  <path d="M128,164 h768 a180,180 0 0 1 180,180 c-300,60 -540,60 -960,0 a180,180 0 0 1 180,-180 z"
        fill="url(#gloss)" opacity="0.4"/>

  <!-- Camera body -->
  <g filter="url(#shadow)">
    <rect x="196" y="256" width="632" height="512" rx="40" fill="#0F172A" opacity="0.18"/>
    <rect x="220" y="276" width="584" height="472" rx="36" fill="#ffffff" opacity="0.12"/>
    <!-- top bar -->
    <rect x="220" y="276" width="584" height="84" rx="24" fill="#111827" opacity="0.28"/>
    <!-- shutter circle as lens behind grid -->
    <circle cx="512" cy="530" r="120" fill="#000000" opacity="0.12"/>
  </g>

  <!-- 3x3 grid tiles -->
  <g transform="translate(252 344)" filter="url(#shadow)">
    <!-- grid cell size -->
    <!-- Each tile: 160x160 with 16 gap -->
    <!-- Row 1 -->
    <rect x="0" y="0" width="160" height="160" rx="24" fill="url(#tileGrad1)"/>
    <rect x="176" y="0" width="160" height="160" rx="24" fill="url(#tileGrad2)"/>
    <rect x="352" y="0" width="160" height="160" rx="24" fill="url(#tileGrad3)"/>
    <!-- Row 2 -->
    <rect x="0" y="176" width="160" height="160" rx="24" fill="url(#tileGrad3)"/>
    <rect x="176" y="176" width="160" height="160" rx="24" fill="url(#tileGrad4)"/>
    <rect x="352" y="176" width="160" height="160" rx="24" fill="url(#tileGrad1)"/>
    <!-- Row 3 -->
    <rect x="0" y="352" width="160" height="160" rx="24" fill="url(#tileGrad2)"/>
    <rect x="176" y="352" width="160" height="160" rx="24" fill="url(#tileGrad1)"/>
    <rect x="352" y="352" width="160" height="160" rx="24" fill="url(#tileGrad4)"/>
    <!-- inner borders -->
    <rect x="-8" y="-8" width="688" height="688" rx="32" fill="none" stroke="#ffffff" stroke-opacity="0.3" stroke-width="8"/>
  </g>

  <!-- Subtle inner shadow for grid block to pop -->
  <rect x="244" y="336" width="704" height="704" rx="48" fill="none" filter="url(#innerShadow)" opacity="0.25"/>

  <!-- Focus ring around center tile to imply "select" -->
  <circle cx="428" cy="520" r="110" fill="none" stroke="#ffffff" stroke-opacity="0.7" stroke-width="8" transform="translate(176 176)"/>

  <!-- Metadata -->
  <metadata>name=PicGrid; type=app-icon; format=svg; version=1.0</metadata>
</svg>
