<?xml version="1.0" encoding="UTF-8"?>
<svg xmlns="http://www.w3.org/2000/svg" viewBox="0 0 1024 1024" width="1024" height="1024" role="img" aria-labelledby="title desc">
  <title>quicknote app icon</title>
  <desc>Rounded square blue app icon with a white notepaper, folded corner, and a yellow lightning accent to suggest speed.</desc>

  <!-- Background -->
  <defs>
    <linearGradient id="bg" x1="0" y1="0" x2="1" y2="1">
      <stop offset="0%" stop-color="#2563EB"/>
      <stop offset="100%" stop-color="#1D4ED8"/>
    </linearGradient>

    <filter id="shadow" x="-20%" y="-20%" width="140%" height="140%">
      <feDropShadow dx="0" dy="10" stdDeviation="20" flood-color="#0b1220" flood-opacity="0.35"/>
    </filter>

    <filter id="boltShadow" x="-20%" y="-20%" width="140%" height="140%">
      <feDropShadow dx="0" dy="8" stdDeviation="12" flood-color="#0b1220" flood-opacity="0.35"/>
    </filter>

    <!-- Subtle texture gloss -->
    <linearGradient id="gloss" x1="0" y1="0" x2="0" y2="1">
      <stop offset="0%" stop-color="#ffffff" stop-opacity="0.35"/>
      <stop offset="45%" stop-color="#ffffff" stop-opacity="0.06"/>
      <stop offset="100%" stop-color="#ffffff" stop-opacity="0"/>
    </linearGradient>
  </defs>

  <!-- Rounded background -->
  <rect x="64" y="64" width="896" height="896" rx="220" fill="url(#bg)"/>

  <!-- Gloss highlight -->
  <path d="M128,160 h768 a200,200 0 0 1 200,200 v0 c-300,70 -566,80 -968,0 v0 a200,200 0 0 1 200,-200 z"
        fill="url(#gloss)" opacity="0.35"/>

  <!-- Paper note -->
  <g filter="url(#shadow)">
    <rect x="212" y="168" width="600" height="720" rx="48" fill="#ffffff"/>
    <!-- Folded corner -->
    <path d="M752 168 L812 228 L812 168 Z" fill="#E5E7EB"/>
    <!-- Paper lines -->
    <g stroke="#D1D5DB" stroke-width="8">
      <line x1="260" y1="292" x2="724" y2="292"/>
      <line x1="260" y1="356" x2="724" y2="356"/>
      <line x1="260" y1="420" x2="724" y2="420"/>
      <line x1="260" y1="484" x2="724" y2="484"/>
      <line x1="260" y1="548" x2="724" y2="548"/>
      <line x1="260" y1="612" x2="724" y2="612"/>
      <line x1="260" y1="676" x2="724" y2="676"/>
    </g>
  </g>

  <!-- Lightning / quick accent forming a subtle "Q" loop -->
  <g filter="url(#boltShadow)">
    <!-- Loop -->
    <path d="M520 596
             m -120 0
             a 120 120 0 1 0 240 0
             a 120 120 0 1 0 -240 0"
          fill="none" stroke="#FACC15" stroke-width="36" stroke-linecap="round"/>
    <!-- Tail to hint the 'Q' -->
    <path d="M604 704 L688 780" stroke="#FACC15" stroke-width="36" stroke-linecap="round"/>
    <!-- Bolt -->
    <path d="M540 260 L480 420 L560 420 L500 560 L660 380 L570 380 L630 260 Z"
          fill="#F59E0B"/>
  </g>

  <!-- App name metadata -->
  <metadata>name=quicknote; type=app-icon; version=1.0</metadata>
</svg>
